<svg width="21" height="20" viewBox="0 0 21 20" fill="none" xmlns="http://www.w3.org/2000/svg">
<g clip-path="url(#clip0_1_9)">
<path d="M16.9118 13.4558C16.9719 13.8435 16.845 14.0076 16.7167 14.0076C16.5885 14.0076 16.4028 13.8499 16.1957 13.5372C15.9887 13.2245 15.9179 12.8769 16.0181 12.6985C16.0558 12.6368 16.1167 12.5914 16.1881 12.5719C16.2595 12.5524 16.3359 12.5603 16.4015 12.5939C16.7421 12.7179 16.8757 13.2232 16.9118 13.4558ZM15.0241 14.3061C15.4343 14.6408 15.5585 15.0388 15.3421 15.3192C15.2762 15.3976 15.1922 15.46 15.0968 15.5013C15.0014 15.5426 14.8974 15.5616 14.793 15.557C14.5642 15.5573 14.3425 15.4801 14.1665 15.3386C13.7951 15.0246 13.6856 14.5141 13.9287 14.2247C13.9824 14.1653 14.0494 14.1185 14.1247 14.0881C14.2 14.0576 14.2814 14.0442 14.3629 14.0489C14.6077 14.0568 14.8418 14.1478 15.0241 14.3061ZM14.3402 17.5367C16.1022 17.5367 18.0139 18.1208 20.1313 19.9351C20.3424 20.116 20.6243 19.8911 20.4399 19.665C18.3599 17.1258 16.4322 16.6412 14.5178 16.2328C12.172 15.7314 10.9643 14.4534 10.1187 13.0513C9.95167 12.7722 9.87552 12.8213 9.86083 13.1805C9.84679 13.7131 9.88841 14.2456 9.98507 14.77C9.89022 14.77 9.79403 14.77 9.69918 14.77C8.49698 14.77 7.32179 14.4252 6.3222 13.7791C5.3226 13.133 4.54352 12.2147 4.08346 11.1404C3.6234 10.066 3.50302 8.88379 3.73756 7.74324C3.9721 6.60269 4.55101 5.55503 5.40109 4.73274C6.25117 3.91045 7.33424 3.35046 8.51334 3.1236C9.69244 2.89673 10.9146 3.01316 12.0253 3.45818C13.136 3.9032 14.0853 4.65682 14.7532 5.62373C15.4211 6.59064 15.7776 7.72742 15.7776 8.89031C15.7782 9.1187 15.7653 9.34694 15.7389 9.5739C15.0985 9.49591 14.4514 9.48421 13.8085 9.53902C13.5773 9.5584 13.6107 9.66824 13.7844 9.69279C15.7883 10.043 17.175 11.2435 17.4902 13.4338C17.4914 13.4449 17.4961 13.4554 17.5037 13.4637C17.5114 13.4721 17.5215 13.4779 17.5328 13.4803C17.544 13.4828 17.5558 13.4817 17.5664 13.4773C17.577 13.4729 17.5859 13.4654 17.5918 13.4558C18.6342 11.7702 19.0706 9.79832 18.8329 7.84768C18.5952 5.89703 17.6968 4.07732 16.2778 2.67239C14.8588 1.26746 12.999 0.356295 10.9885 0.0810301C8.97799 -0.194235 6.92984 0.181874 5.1635 1.15069C3.39717 2.11951 2.01197 3.62656 1.22396 5.43677C0.435958 7.24698 0.289461 9.25857 0.807322 11.1578C1.32518 13.057 2.47828 14.737 4.08676 15.9358C5.69524 17.1346 7.66865 17.7847 9.69918 17.7848C11.0418 17.7887 12.379 17.5354 14.3402 17.5354V17.5367Z" fill="#3E9CDC"/>
</g>
<defs>
<clipPath id="clip0_1_9">
<rect width="20" height="20" fill="white" transform="translate(0.499939)"/>
</clipPath>
</defs>
</svg>
