<svg width="31" height="32" viewBox="0 0 31 32" fill="none" xmlns="http://www.w3.org/2000/svg">
<path d="M25.7857 23.9643C25.7857 25.3705 24.6206 26.5357 23.2143 26.5357C21.8081 26.5357 20.6429 25.3705 20.6429 23.9643C20.6429 22.558 21.8081 21.3928 23.2143 21.3928C24.6206 21.3928 25.7857 22.558 25.7857 23.9643ZM10.3572 8.5357C10.3572 9.94195 9.19198 11.1071 7.78573 11.1071C6.37948 11.1071 5.2143 9.94195 5.2143 8.5357C5.2143 7.12945 6.37948 5.96427 7.78573 5.96427C9.19198 5.96427 10.3572 7.12945 10.3572 8.5357ZM30.9286 23.9643C30.9286 19.7053 27.4732 16.25 23.2143 16.25C18.9554 16.25 15.5 19.7053 15.5 23.9643C15.5 28.2232 18.9554 31.6786 23.2143 31.6786C27.4732 31.6786 30.9286 28.2232 30.9286 23.9643ZM29 2.10713C29 1.404 28.4174 0.821411 27.7143 0.821411H24.5C24.0982 0.821411 23.7165 1.0223 23.4755 1.34373L2.26117 29.6294C2.10046 29.8504 2.00001 30.1116 2.00001 30.3928C2.00001 31.096 2.5826 31.6786 3.28573 31.6786H6.50001C6.9018 31.6786 7.2835 31.4777 7.52457 31.1562L28.7389 2.87052C28.8996 2.64954 29 2.38838 29 2.10713ZM15.5 8.5357C15.5 4.27677 12.0447 0.821411 7.78573 0.821411C3.5268 0.821411 0.0714417 4.27677 0.0714417 8.5357C0.0714417 12.7946 3.5268 16.25 7.78573 16.25C12.0447 16.25 15.5 12.7946 15.5 8.5357Z" fill="white"/>
</svg>
